<svg width="24" height="24" viewBox="0 0 24 24" fill="none" xmlns="http://www.w3.org/2000/svg">
<path fill-rule="evenodd" clip-rule="evenodd" d="M12 0.5C12.2761 0.5 12.5 0.723858 12.5 1L12.5 23C12.5 23.2761 12.2761 23.5 12 23.5C11.7239 23.5 11.5 23.2761 11.5 23L11.5 1C11.5 0.723858 11.7239 0.5 12 0.5Z" fill="#8A9B8E"/>
<path fill-rule="evenodd" clip-rule="evenodd" d="M11.6464 0.646448C11.8417 0.451186 12.1583 0.451186 12.3536 0.646448L19.0098 7.3027C19.2051 7.49796 19.2051 7.81454 19.0098 8.00981C18.8145 8.20507 18.498 8.20507 18.3027 8.00981L12 1.70711L5.6973 8.0098C5.50204 8.20507 5.18546 8.20507 4.9902 8.0098C4.79493 7.81454 4.79493 7.49796 4.9902 7.3027L11.6464 0.646448Z" fill="#8A9B8E"/>
</svg>
